<svg viewBox="0 0 6.827 6.827" xml:space="preserve" xmlns="http://www.w3.org/2000/svg" shape-rendering="geometricPrecision" text-rendering="geometricPrecision" image-rendering="optimizeQuality" fill-rule="evenodd" clip-rule="evenodd"><path d="M2.947 1.817a1.337 1.337 0 0 1 1.35 1.35 1.37 1.37 0 0 1-.404.962 1.37 1.37 0 0 1-.962.403 1.337 1.337 0 0 1-1.35-1.35 1.37 1.37 0 0 1 .404-.961 1.37 1.37 0 0 1 .962-.404z" fill="#e4bc7b" fill-rule="nonzero" class="fill-e4bc7b"></path><path d="M2.947 1.817a1.337 1.337 0 0 1 1.35 1.35 1.37 1.37 0 0 1-.404.962 1.37 1.37 0 0 1-.84.397L1.588 3.061a1.37 1.37 0 0 1 .397-.84 1.37 1.37 0 0 1 .962-.404z" fill="#327fb3" fill-rule="nonzero" class="fill-40535c"></path><path d="M2.389 4.398c-.335.028-.567.307-.801.587a5.84 5.84 0 0 1-.219.252.063.063 0 0 1-.049.024.504.504 0 0 1-.202-.039.462.462 0 0 1-.226-.226.504.504 0 0 1-.039-.202c0-.02.01-.038.024-.05.079-.073.162-.144.246-.214.281-.236.562-.471.592-.808a1.397 1.397 0 0 0 .674.676z" fill="#cfab71" fill-rule="nonzero" class="fill-cfab71"></path><path d="M3.67 1.749a1.337 1.337 0 0 1 1.908 0c.244.247.395.588.395.965s-.15.718-.395.966a1.337 1.337 0 0 1-1.909 0 1.37 1.37 0 0 1-.395-.966c0-.377.151-.718.395-.965z" fill="#e4bc7b" fill-rule="nonzero" class="fill-e4bc7b"></path><path d="M3.67 1.749a1.337 1.337 0 0 1 1.908 0c.244.247.395.588.395.965 0 .333-.117.638-.313.875H3.588a1.37 1.37 0 0 1-.314-.875c0-.377.151-.718.395-.965z" fill="#f2354c" fill-rule="nonzero" class="fill-f2354c"></path><path d="M5.1 3.968c-.218.257-.185.618-.152.982.01.112.02.225.024.333a.063.063 0 0 1-.018.05.504.504 0 0 1-.17.117.462.462 0 0 1-.32 0 .504.504 0 0 1-.17-.116.063.063 0 0 1-.019-.051c.004-.109.013-.217.023-.326.032-.366.064-.731-.153-.99a1.397 1.397 0 0 0 .954.001z" fill="#cfab71" fill-rule="nonzero" class="fill-cfab71"></path><path d="M3.37 4.82a.332.332 0 0 1 .57.235.332.332 0 0 1-.57.235.332.332 0 0 1 0-.47z" fill="#ffa000" fill-rule="nonzero" class="fill-ffa000"></path><path d="M0 0h6.827v6.827H0z" fill="none"></path></svg>